<svg width="126" height="34" viewBox="0 0 126 34" fill="none" xmlns="http://www.w3.org/2000/svg">
<path d="M14.8597 2.96144C13.6357 2.96144 12.4837 3.17744 11.4037 3.60944C10.3477 4.04144 9.42367 4.70144 8.63167 5.58944C7.83967 6.47744 7.20367 7.60544 6.72367 8.97344C6.26767 10.3174 6.03967 11.9134 6.03967 13.7614C6.03967 15.6094 6.26767 17.2174 6.72367 18.5854C7.20367 19.9294 7.83967 21.0454 8.63167 21.9334C9.42367 22.8214 10.3477 23.4814 11.4037 23.9134C12.4837 24.3454 13.6357 24.5614 14.8597 24.5614C16.0837 24.5614 17.2237 24.3454 18.2797 23.9134C19.3597 23.4814 20.2957 22.8214 21.0877 21.9334C21.8797 21.0454 22.5037 19.9294 22.9597 18.5854C23.4397 17.2174 23.6797 15.6094 23.6797 13.7614C23.6797 11.9134 23.4397 10.3174 22.9597 8.97344C22.5037 7.60544 21.8797 6.47744 21.0877 5.58944C20.2957 4.70144 19.3597 4.04144 18.2797 3.60944C17.2237 3.17744 16.0837 2.96144 14.8597 2.96144ZM14.8597 0.441437C17.0197 0.441437 18.9757 0.729437 20.7277 1.30544C22.5037 1.88144 24.0157 2.73344 25.2637 3.86144C26.5357 4.98944 27.5197 6.38144 28.2157 8.03744C28.9117 9.69344 29.2597 11.6014 29.2597 13.7614C29.2597 15.9214 28.9117 17.8294 28.2157 19.4854C27.5197 21.1414 26.5357 22.5334 25.2637 23.6614C24.0157 24.7894 22.5037 25.6414 20.7277 26.2174C18.9757 26.7934 17.0197 27.0814 14.8597 27.0814C12.6997 27.0814 10.7317 26.7934 8.95567 26.2174C7.17967 25.6414 5.65567 24.7894 4.38367 23.6614C3.13567 22.5334 2.16367 21.1414 1.46767 19.4854C0.795671 17.8294 0.459671 15.9214 0.459671 13.7614C0.459671 11.6014 0.795671 9.69344 1.46767 8.03744C2.16367 6.38144 3.13567 4.98944 4.38367 3.86144C5.65567 2.73344 7.17967 1.88144 8.95567 1.30544C10.7317 0.729437 12.6997 0.441437 14.8597 0.441437Z" fill="black"/>
<path d="M43.4937 10.1614H39.1737C37.5417 10.1614 36.2937 10.6054 35.4297 11.4934C34.5657 12.3574 34.1337 13.6534 34.1337 15.3814V26.3614H29.0937V15.3814C29.0937 12.9334 29.8617 11.0374 31.3977 9.69344C32.9577 8.32544 35.1897 7.64144 38.0937 7.64144H43.4937V10.1614Z" fill="black"/>
<path d="M51.0298 10.1614C49.3018 10.1614 47.9338 10.7014 46.9258 11.7814C45.9418 12.8374 45.4498 14.4574 45.4498 16.6414C45.4498 18.8254 45.9418 20.4574 46.9258 21.5374C47.9338 22.5934 49.3018 23.1214 51.0298 23.1214H55.5298V10.1614H51.0298ZM60.5698 26.0014C60.5698 27.1294 60.3538 28.1494 59.9218 29.0614C59.4898 29.9974 58.8418 30.8014 57.9778 31.4734C57.1378 32.1454 56.0698 32.6614 54.7738 33.0214C53.5018 33.3814 52.0138 33.5614 50.3098 33.5614C49.7338 33.5614 49.1098 33.5134 48.4378 33.4174C47.7898 33.3454 47.1298 33.2134 46.4578 33.0214C45.7858 32.8534 45.1258 32.6254 44.4778 32.3374C43.8538 32.0734 43.2778 31.7614 42.7498 31.4014L44.0098 29.2414C44.8258 29.7934 45.7498 30.2254 46.7818 30.5374C47.8138 30.8734 48.8698 31.0414 49.9498 31.0414C51.7498 31.0414 53.1298 30.6334 54.0898 29.8174C55.0498 29.0014 55.5298 27.7294 55.5298 26.0014V25.6414H51.0298C49.3738 25.6414 47.8618 25.4254 46.4938 24.9934C45.1498 24.5614 43.9978 23.9494 43.0378 23.1574C42.0778 22.3654 41.3338 21.4174 40.8058 20.3134C40.3018 19.2094 40.0498 17.9854 40.0498 16.6414C40.0498 15.2974 40.3018 14.0734 40.8058 12.9694C41.3338 11.8654 42.0778 10.9174 43.0378 10.1254C43.9978 9.33344 45.1498 8.72144 46.4938 8.28944C47.8618 7.85744 49.3738 7.64144 51.0298 7.64144H60.5698V26.0014Z" fill="black"/>
<path d="M65.4144 20.4214C65.4144 22.7014 66.7944 23.8414 69.5544 23.8414H74.5944V17.0014H69.5544C66.7944 17.0014 65.4144 18.1414 65.4144 20.4214ZM74.5944 14.4814C74.5944 12.7534 74.1384 11.4814 73.2264 10.6654C72.3384 9.84944 71.1744 9.44144 69.7344 9.44144C68.6544 9.44144 67.5984 9.60944 66.5664 9.94544C65.5344 10.2574 64.6104 10.6894 63.7944 11.2414L62.5344 9.08144C63.0624 8.72144 63.6384 8.40944 64.2624 8.14544C64.9104 7.88144 65.5704 7.66544 66.2424 7.49744C66.9144 7.30544 67.5744 7.16144 68.2224 7.06544C68.8944 6.96944 69.5184 6.92144 70.0944 6.92144C71.6304 6.92144 72.9864 7.10144 74.1624 7.46144C75.3384 7.82144 76.3344 8.33744 77.1504 9.00944C77.9664 9.68144 78.5784 10.4854 78.9864 11.4214C79.4184 12.3334 79.6344 13.3534 79.6344 14.4814V26.3614H69.5544C66.2904 26.3614 63.8784 25.8694 62.3184 24.8854C60.7824 23.9014 60.0144 22.4134 60.0144 20.4214C60.0144 18.4294 60.7824 16.9414 62.3184 15.9574C63.8784 14.9734 66.2904 14.4814 69.5544 14.4814H74.5944Z" fill="black"/>
<path d="M99.9575 26.3614H94.9175V15.0214C94.9175 13.2934 94.4855 12.0574 93.6215 11.3134C92.7575 10.5454 91.5095 10.1614 89.8775 10.1614H85.1975V26.3614H80.1575V7.64144H89.8775C93.3095 7.64144 95.8415 8.26544 97.4735 9.51344C99.1295 10.7374 99.9575 12.5734 99.9575 15.0214V26.3614Z" fill="black"/>
<path d="M105.702 26.3614H100.662V8.00144H105.702V26.3614ZM105.882 3.14144C105.882 3.86144 105.63 4.49744 105.126 5.04944C104.646 5.57744 103.998 5.84144 103.182 5.84144C102.366 5.84144 101.706 5.57744 101.202 5.04944C100.722 4.49744 100.482 3.86144 100.482 3.14144C100.482 2.42144 100.722 1.79744 101.202 1.26944C101.706 0.717437 102.366 0.441437 103.182 0.441437C103.974 0.441437 104.622 0.717437 105.126 1.26944C105.63 1.79744 105.882 2.42144 105.882 3.14144Z" fill="black"/>
<path d="M110.923 11.6014C110.923 12.1534 111.163 12.6574 111.643 13.1134C112.147 13.5694 112.987 13.9654 114.163 14.3014L119.743 15.9214C121.471 16.4254 122.803 17.1094 123.739 17.9734C124.675 18.8374 125.143 19.9534 125.143 21.3214C125.143 22.1854 124.963 22.9774 124.603 23.6974C124.243 24.3934 123.655 24.9934 122.839 25.4974C122.023 26.0014 120.967 26.3854 119.671 26.6494C118.375 26.9374 116.779 27.0814 114.883 27.0814C113.899 27.0814 112.927 27.0094 111.967 26.8654C111.031 26.7214 110.131 26.5294 109.267 26.2894C108.427 26.0254 107.659 25.7374 106.963 25.4254C106.267 25.0894 105.667 24.7414 105.163 24.3814L106.603 22.2214C107.611 22.8454 108.787 23.3974 110.131 23.8774C111.499 24.3334 113.083 24.5614 114.883 24.5614C116.683 24.5614 117.943 24.3214 118.663 23.8414C119.383 23.3614 119.743 22.7614 119.743 22.0414C119.743 21.4894 119.491 20.9974 118.987 20.5654C118.483 20.1094 117.595 19.7014 116.323 19.3414L110.743 17.7214C109.207 17.2654 107.947 16.6174 106.963 15.7774C106.003 14.9134 105.523 13.7614 105.523 12.3214C105.523 11.5534 105.691 10.8454 106.027 10.1974C106.387 9.52544 106.939 8.94944 107.683 8.46944C108.427 7.98944 109.375 7.61744 110.527 7.35344C111.679 7.06544 113.071 6.92144 114.703 6.92144C116.695 6.92144 118.495 7.19744 120.103 7.74944C121.735 8.27744 123.055 8.90144 124.063 9.62144L122.623 11.7814C121.639 11.1574 120.523 10.6174 119.275 10.1614C118.027 9.68144 116.503 9.44144 114.703 9.44144C113.431 9.44144 112.483 9.64544 111.859 10.0534C111.235 10.4614 110.923 10.9774 110.923 11.6014Z" fill="black"/>
</svg>
