<svg width="21" height="12" viewBox="0 0 21 12" fill="none" xmlns="http://www.w3.org/2000/svg">
<path d="M5.4 1.2C4.992 1.2 4.608 1.272 4.248 1.416C3.896 1.56 3.588 1.78 3.324 2.076C3.06 2.372 2.848 2.748 2.688 3.204C2.536 3.652 2.46 4.184 2.46 4.8C2.46 5.416 2.536 5.952 2.688 6.408C2.848 6.856 3.06 7.228 3.324 7.524C3.588 7.82 3.896 8.04 4.248 8.184C4.608 8.328 4.992 8.4 5.4 8.4C5.808 8.4 6.188 8.328 6.54 8.184C6.9 8.04 7.212 7.82 7.476 7.524C7.74 7.228 7.948 6.856 8.1 6.408C8.26 5.952 8.34 5.416 8.34 4.8C8.34 4.184 8.26 3.652 8.1 3.204C7.948 2.748 7.74 2.372 7.476 2.076C7.212 1.78 6.9 1.56 6.54 1.416C6.188 1.272 5.808 1.2 5.4 1.2ZM5.4 0.36C6.12 0.36 6.772 0.456 7.356 0.648C7.948 0.839999 8.452 1.124 8.868 1.5C9.292 1.876 9.62 2.34 9.852 2.892C10.084 3.444 10.2 4.08 10.2 4.8C10.2 5.52 10.084 6.156 9.852 6.708C9.62 7.26 9.292 7.724 8.868 8.1C8.452 8.476 7.948 8.76 7.356 8.952C6.772 9.144 6.12 9.24 5.4 9.24C4.68 9.24 4.024 9.144 3.432 8.952C2.84 8.76 2.332 8.476 1.908 8.1C1.492 7.724 1.168 7.26 0.936 6.708C0.712 6.156 0.6 5.52 0.6 4.8C0.6 4.08 0.712 3.444 0.936 2.892C1.168 2.34 1.492 1.876 1.908 1.5C2.332 1.124 2.84 0.839999 3.432 0.648C4.024 0.456 4.68 0.36 5.4 0.36ZM15.0647 3.6H13.6247C13.0807 3.6 12.6647 3.748 12.3767 4.044C12.0887 4.332 11.9447 4.764 11.9447 5.34V9H10.2647V5.34C10.2647 4.524 10.5207 3.892 11.0327 3.444C11.5527 2.988 12.2967 2.76 13.2647 2.76H15.0647V3.6ZM17.6967 3.6C17.1207 3.6 16.6647 3.78 16.3287 4.14C16.0007 4.492 15.8367 5.032 15.8367 5.76C15.8367 6.488 16.0007 7.032 16.3287 7.392C16.6647 7.744 17.1207 7.92 17.6967 7.92H19.1967V3.6H17.6967ZM20.8767 8.88C20.8767 9.256 20.8047 9.596 20.6607 9.9C20.5167 10.212 20.3007 10.48 20.0127 10.704C19.7327 10.928 19.3767 11.1 18.9447 11.22C18.5207 11.34 18.0247 11.4 17.4567 11.4C17.2647 11.4 17.0567 11.384 16.8327 11.352C16.6167 11.328 16.3967 11.284 16.1727 11.22C15.9487 11.164 15.7287 11.088 15.5127 10.992C15.3047 10.904 15.1127 10.8 14.9367 10.68L15.3567 9.96C15.6287 10.144 15.9367 10.288 16.2807 10.392C16.6247 10.504 16.9767 10.56 17.3367 10.56C17.9367 10.56 18.3967 10.424 18.7167 10.152C19.0367 9.88 19.1967 9.456 19.1967 8.88V8.76H17.6967C17.1447 8.76 16.6407 8.688 16.1847 8.544C15.7367 8.4 15.3527 8.196 15.0327 7.932C14.7127 7.668 14.4647 7.352 14.2887 6.984C14.1207 6.616 14.0367 6.208 14.0367 5.76C14.0367 5.312 14.1207 4.904 14.2887 4.536C14.4647 4.168 14.7127 3.852 15.0327 3.588C15.3527 3.324 15.7367 3.12 16.1847 2.976C16.6407 2.832 17.1447 2.76 17.6967 2.76H20.8767V8.88Z" fill="white"/>
</svg>
